<?xml version="1.0" encoding="utf-8"?>
<!-- Generator: Adobe Illustrator 19.0.0, SVG Export Plug-In . SVG Version: 6.00 Build 0)  -->
<svg version="1.1" id="Layer_1" xmlns="http://www.w3.org/2000/svg" xmlns:xlink="http://www.w3.org/1999/xlink" x="0px" y="0px"
	 viewBox="0 0 15 15" style="enable-background:new 0 0 15 15;" xml:space="preserve">
<style type="text/css">
	.st0{fill:#868686;}
</style>
<path id="XMLID_2_" class="st0" d="M8.6,15H6.2c-0.6,0-1.1-0.5-1.1-1.1V1.1C5.1,0.5,5.6,0,6.2,0l2.4,0c0.6,0,1.1,0.5,1.1,1.1v12.8
	C9.7,14.5,9.2,15,8.6,15z"/>
<path id="XMLID_43_" class="st0" d="M0,8.7l0-2.4c0-0.6,0.5-1.1,1.1-1.1h12.8c0.6,0,1.1,0.5,1.1,1.1v2.4c0,0.6-0.5,1.1-1.1,1.1H1.1
	C0.5,9.8,0,9.3,0,8.7z"/>
</svg>
