<?xml version="1.0" encoding="utf-8"?>
<!-- Generator: Adobe Illustrator 19.0.0, SVG Export Plug-In . SVG Version: 6.00 Build 0)  -->
<svg version="1.1" id="Layer_1" xmlns="http://www.w3.org/2000/svg" xmlns:xlink="http://www.w3.org/1999/xlink" x="0px" y="0px"
	 viewBox="5 7.7 90 84.7" style="enable-background:new 5 7.7 90 84.7;" xml:space="preserve">
<style type="text/css">
	.st0{fill:#858582;}
</style>
<g id="Your_Icon">
	<path class="st0" d="M32.1,24.5c0,1.9-1.5,3.4-3.4,3.4c-1.9,0-3.4-1.5-3.4-3.4c0-1.9,1.5-3.4,3.4-3.4
		C30.6,21.1,32.1,22.6,32.1,24.5z"/>
	<path class="st0" d="M32.1,36.9c0,1.9-1.5,3.4-3.4,3.4c-1.9,0-3.4-1.5-3.4-3.4c0-1.9,1.5-3.4,3.4-3.4
		C30.6,33.5,32.1,35.1,32.1,36.9z"/>
	<circle class="st0" cx="28.7" cy="49.4" r="3.4"/>
	<path class="st0" d="M62.9,27.5H40c-1.7,0-3.1-1.4-3.1-3.1c0-1.7,1.4-3.1,3.1-3.1h22.8c1.7,0,3.1,1.4,3.1,3.1
		C65.9,26.2,64.6,27.5,62.9,27.5z"/>
	<path class="st0" d="M62.9,40H40c-1.7,0-3.1-1.4-3.1-3.1c0-1.7,1.4-3.1,3.1-3.1h22.8c1.7,0,3.1,1.4,3.1,3.1
		C65.9,38.6,64.6,40,62.9,40z"/>
	<path class="st0" d="M62.9,52.5H40c-1.7,0-3.1-1.4-3.1-3.1c0-1.7,1.4-3.1,3.1-3.1h22.8c1.7,0,3.1,1.4,3.1,3.1
		C65.9,51.1,64.6,52.5,62.9,52.5z"/>
	<circle class="st0" cx="28.7" cy="61.1" r="3.4"/>
	<path class="st0" d="M62.9,64.2H40c-1.7,0-3.1-1.4-3.1-3.1c0-1.7,1.4-3.1,3.1-3.1h22.8c1.7,0,3.1,1.4,3.1,3.1
		C65.9,62.8,64.6,64.2,62.9,64.2z"/>
	<path class="st0" d="M95,22.9c0-11.1-4.1-15.2-9.2-15.2H23.6c-5.2,0-9.4,4.2-9.4,9.4v59.3h0H5c0,13.8,5.1,15.9,11.4,15.9h7.2h40.1
		H71c5.2,0,9.4-4.2,9.4-9.4V22.9H95z M76.7,82.9c0,3.1-2.5,5.7-5.7,5.7c-5.1,0-7.6-1.1-7.6-12.2H50.2H17.9V17.1
		c0-3.1,2.5-5.7,5.7-5.7h55.6c-1.5,2.4-2.4,6-2.5,11.1c0,0.1,0,0.2,0,0.3L76.7,82.9L76.7,82.9z"/>
</g>
</svg>
