<?xml version="1.0" encoding="utf-8"?>
<!-- Generator: Adobe Illustrator 19.0.0, SVG Export Plug-In . SVG Version: 6.00 Build 0)  -->
<svg version="1.1" id="Layer_1" xmlns="http://www.w3.org/2000/svg" xmlns:xlink="http://www.w3.org/1999/xlink" x="0px" y="0px"
	 viewBox="11.9 2 76.2 96" style="enable-background:new 11.9 2 76.2 96;" xml:space="preserve">
<style type="text/css">
	.st0{fill:#828382;}
</style>
<g>
	<path class="st0" d="M59.9,97.9c0,0-0.9,0-1.4-0.1l-1.7-0.4c-1.3-0.4-2.4-1.2-3.1-2.4c-0.7-1.2-0.9-2.6-0.5-4l1.9-7H26.4l-2.8,10.1
		C23,96.4,21,98,18.7,98c-0.4,0-0.9,0-1.3-0.2l-1.7-0.4c-1.3-0.4-2.4-1.2-3.1-2.4c-0.7-1.2-0.9-2.6-0.5-3.9L35.2,5.9
		c0.6-2.2,2.6-3.8,5-3.8c0.4,0,0.9,0.1,1.3,0.2l1.7,0.4c1.3,0.4,2.4,1.2,3.1,2.4c0.7,1.2,0.9,2.4,0.5,3.8l-1.9,6.4h28.8l2.8-9.5
		C77,3.5,79,2,81.3,2c0.4,0,0.9,0.1,1.3,0.2l1.7,0.5c1.3,0.4,2.4,1.2,3.1,2.4c0.7,1.2,0.9,2.6,0.5,3.9L64.9,94.2
		C64.3,96.4,62.5,97.9,59.9,97.9L59.9,97.9L59.9,97.9z M58.3,73l4.5-17H34l-4.5,17H58.3z M66,44.2L70.5,28H41.7l-4.5,16.2H66z"/>
</g>
</svg>
