<?xml version="1.0" encoding="utf-8"?>
<!-- Generator: Adobe Illustrator 19.0.0, SVG Export Plug-In . SVG Version: 6.00 Build 0)  -->
<svg version="1.1" id="Isolation_Mode" xmlns="http://www.w3.org/2000/svg" xmlns:xlink="http://www.w3.org/1999/xlink" x="0px"
	 y="0px" viewBox="28.7 37.9 25 25.1" style="enable-background:new 28.7 37.9 25 25.1;" xml:space="preserve">
<style type="text/css">
	.st0{fill:#828382;}
</style>
<path class="st0" d="M29.3,46.6l1.6,0.6c0.1,0.1,0.3,0.1,0.4,0.1c0.4,0,0.8-0.2,0.9-0.6c0.2-0.5,0-1.1-0.5-1.3L30,44.8
	c-0.5-0.2-1.1,0-1.3,0.5C28.5,45.8,28.8,46.4,29.3,46.6z"/>
<path class="st0" d="M36.1,40.9c0.2,0.4,0.5,0.6,0.9,0.6c0.1,0,0.3,0,0.4-0.1c0.5-0.2,0.7-0.8,0.5-1.3l-0.7-1.6
	c-0.2-0.5-0.8-0.8-1.3-0.5c-0.5,0.2-0.7,0.8-0.5,1.3L36.1,40.9z"/>
<path class="st0" d="M44.8,41.4c0.1,0,0.3,0.1,0.4,0.1c0.4,0,0.8-0.2,0.9-0.6l0.6-1.6c0.2-0.5,0-1.1-0.6-1.3c-0.5-0.2-1.1,0-1.3,0.6
	l-0.6,1.6C44,40.6,44.3,41.2,44.8,41.4z"/>
<path class="st0" d="M51,47.2c0.1,0,0.3,0,0.4-0.1l1.6-0.7c0.5-0.2,0.7-0.8,0.5-1.3c-0.2-0.5-0.8-0.7-1.3-0.5l-1.6,0.7
	c-0.5,0.2-0.7,0.8-0.5,1.3C50.2,47,50.6,47.2,51,47.2z"/>
<path class="st0" d="M53,54.1l-1.6-0.6c-0.5-0.2-1.1,0-1.3,0.6c-0.2,0.5,0,1.1,0.6,1.3l1.6,0.6c0.1,0,0.2,0.1,0.4,0.1
	c0.4,0,0.8-0.2,0.9-0.6C53.8,54.9,53.6,54.3,53,54.1z"/>
<path class="st0" d="M46.3,59.8c-0.2-0.5-0.8-0.7-1.3-0.5c-0.5,0.2-0.7,0.8-0.5,1.3l0.7,1.6c0.2,0.4,0.5,0.6,0.9,0.6
	c0.1,0,0.3,0,0.4-0.1c0.5-0.2,0.7-0.8,0.5-1.3L46.3,59.8z"/>
<path class="st0" d="M37.6,59.4c-0.5-0.2-1.1,0.1-1.3,0.6l-0.6,1.6c-0.2,0.5,0,1.1,0.6,1.3c0.1,0,0.2,0.1,0.4,0.1
	c0.4,0,0.8-0.2,0.9-0.6l0.6-1.6C38.3,60.2,38.1,59.6,37.6,59.4z"/>
<path class="st0" d="M30.9,53.8l-1.6,0.7c-0.5,0.2-0.7,0.8-0.5,1.3c0.2,0.4,0.5,0.6,0.9,0.6c0.1,0,0.3,0,0.4-0.1l1.6-0.7
	c0.5-0.2,0.7-0.8,0.5-1.3C32,53.8,31.4,53.6,30.9,53.8z"/>
<path class="st0" d="M45.9,56.4c0.1-0.3,0.1-0.6,0.1-0.9l0,0l-0.2-9.8l0,0c0.1-1.3-0.8-2.6-2.1-3.1c-1.3-0.4-2.8,0.1-3.5,1.2l0,0
	l-6,7.7l0,0c-0.2,0.2-0.3,0.5-0.4,0.8c-0.5,1.6,0.3,3.3,1.9,3.9l0,0l6.4,2.1c0,0,0,0,0,0C43.6,58.9,45.4,58,45.9,56.4z M42.2,45.4
	L42.2,45.4L42.2,45.4L42.2,45.4c0.1-0.3,0.5-0.5,0.8-0.4c0.3,0.1,0.5,0.4,0.4,0.7v0c0,0,0,0,0,0c0,0,0,0,0,0l0.1,2.8c0,0,0,0,0,0
	l0.1,3.5l-5.2-1.7L42.2,45.4z M43.6,55.4c0,0.1,0,0.1,0,0.2c-0.1,0.3-0.4,0.5-0.7,0.4c0,0,0,0,0,0L40,55l-0.6-0.2v0l-2.9-0.9
	c0,0,0,0,0,0c0,0,0,0,0,0l0,0l0,0c-0.3-0.1-0.4-0.4-0.3-0.7c0-0.1,0.1-0.2,0.1-0.2l0,0l0.4-0.5l6.9,2.3L43.6,55.4
	C43.6,55.4,43.6,55.4,43.6,55.4L43.6,55.4L43.6,55.4z"/>
</svg>
